HIERARCHY
ROOT Hips
{
 OFFSET 0.000000 0.000000 0.000000
 CHANNELS 6 Xposition Yposition Zposition Yrotation Xrotation Zrotation
 JOINT Chest
 {
  OFFSET 0.000000 9.585900 0.002600
  CHANNELS 3 Yrotation Xrotation Zrotation
  JOINT Chest2
  {
   OFFSET 0.000000 9.601200 -0.005300
   CHANNELS 3 Yrotation Xrotation Zrotation
   JOINT Chest3
   {
    OFFSET 0.000000 9.561800 0.000000
    CHANNELS 3 Yrotation Xrotation Zrotation
    JOINT Chest4
    {
     OFFSET 0.000000 9.552100 0.000000
     CHANNELS 3 Yrotation Xrotation Zrotation
     JOINT Neck
     {
      OFFSET 0.000000 14.453000 0.000000
      CHANNELS 3 Yrotation Xrotation Zrotation
      JOINT Head
      {
       OFFSET 0.000000 8.936500 -0.011300
       CHANNELS 3 Yrotation Xrotation Zrotation
       End Site
       {
        OFFSET 0.000000 17.073600 -0.006000
       }
      }
     }
     JOINT RightCollar
     {
      OFFSET -2.921100 9.558500 0.000000
      CHANNELS 3 Yrotation Xrotation Zrotation
      JOINT RightShoulder
      {
       OFFSET -13.519700 0.000000 0.000000
       CHANNELS 3 Yrotation Xrotation Zrotation
       JOINT RightElbow
       {
        OFFSET 0.000000 -29.696600 0.000000
        CHANNELS 3 Yrotation Xrotation Zrotation
        JOINT RightWrist
        {
         OFFSET 0.000000 -24.004700 0.000000
         CHANNELS 3 Yrotation Xrotation Zrotation
         End Site
         {
          OFFSET 0.000000 -17.728500 0.000000
         }
        }
       }
      }
     }
     JOINT LeftCollar
     {
      OFFSET 2.921100 9.558500 0.000000
      CHANNELS 3 Yrotation Xrotation Zrotation
      JOINT LeftShoulder
      {
       OFFSET 13.519700 0.000000 0.000000
       CHANNELS 3 Yrotation Xrotation Zrotation
       JOINT LeftElbow
       {
        OFFSET 0.000000 -29.696600 0.000000
        CHANNELS 3 Yrotation Xrotation Zrotation
        JOINT LeftWrist
        {
         OFFSET 0.000000 -24.004700 0.000000
         CHANNELS 3 Yrotation Xrotation Zrotation
         End Site
         {
          OFFSET 0.000000 -17.728500 0.000000
         }
        }
       }
      }
     }
    }
   }
  }
 }
 JOINT RightHip
 {
  OFFSET -7.771700 -0.012900 -0.001300
  CHANNELS 3 Yrotation Xrotation Zrotation
  JOINT RightKnee
  {
   OFFSET 0.000000 -40.869800 0.001200
   CHANNELS 3 Yrotation Xrotation Zrotation
   JOINT RightAnkle
   {
    OFFSET 0.000000 -39.717900 0.002100
    CHANNELS 3 Yrotation Xrotation Zrotation
    JOINT RightToe
    {
     OFFSET 0.000000 -4.965400 11.033500
     CHANNELS 3 Yrotation Xrotation Zrotation
     End Site
     {
      OFFSET 0.000000 -1.423100 5.872300
     }
    }
   }
  }
 }
 JOINT LeftHip
 {
  OFFSET 7.771700 -0.012900 -0.001300
  CHANNELS 3 Yrotation Xrotation Zrotation
  JOINT LeftKnee
  {
   OFFSET 0.000000 -40.869800 0.001200
   CHANNELS 3 Yrotation Xrotation Zrotation
   JOINT LeftAnkle
   {
    OFFSET 0.000000 -39.717900 0.002100
    CHANNELS 3 Yrotation Xrotation Zrotation
    JOINT LeftToe
    {
     OFFSET 0.000000 -4.965400 11.033500
     CHANNELS 3 Yrotation Xrotation Zrotation
     End Site
     {
      OFFSET 0.000000 -1.423100 5.872300
     }
    }
   }
  }
 }
}
MOTION
Frames: 11
Frame Time: 0.008333
0.000000 85.388000 0.000000 0.000000 -5.767877 0.000000 0.000000 11.653817 0.000000 0.000000 -5.885947 0.000000 0.000000 -0.000000 0.000000 0.000000 -0.000000 0.000000 0.000000 12.528835 0.000000 0.000000 0.711642 0.000000 0.000000 -0.000000 0.000000 0.000000 0.000000 -90.000000 0.000000 -2.309062 0.000000 0.000000 2.309062 0.000000 0.000000 -0.000000 0.000000 0.000000 -0.000000 90.000000 0.000000 -2.309062 0.000000 0.000000 2.309062 0.000000 0.000000 8.520406 0.000000 0.000000 1.905762 0.000000 -0.000000 -4.658285 0.000000 0.000000 -0.000000 0.000000 0.000000 8.520406 0.000000 0.000000 1.905762 0.000000 -0.000000 -4.658285 0.000000 0.000000 -0.000000 0.000000
-39.250074 50.725559 4.113804 163.427801 -5.764230 -0.637127 3.253885 5.965691 0.929368 0.119161 0.240307 0.001985 0.213497 0.432309 0.007353 2.847290 5.712398 0.179785 2.539601 17.669153 -0.244155 4.761122 -2.934134 -1.294533 3.274650 6.425513 0.621216 -7.830700 -13.739169 -6.992857 -42.306417 -76.078808 63.588047 -1.041472 1.813323 -29.744544 -6.037406 3.177281 0.084089 21.273524 -6.124942 0.567865 59.899534 -77.715586 -80.931815 0.709186 8.117644 13.981654 -4.480414 -74.662633 0.811892 -115.127789 82.337625 -114.149208 -2.545707 -14.367587 0.458324 -0.276425 0.761939 -0.120114 -11.533880 -78.027035 28.838148 111.179782 79.345778 107.053991 -16.555634 -20.890560 0.659612 -0.350628 -1.027773 -0.148692
-39.249231 50.725016 4.113349 163.420361 -5.771521 -0.649327 3.260227 5.962853 0.938654 0.119055 0.239987 0.001998 0.211386 0.432317 0.007735 2.848467 5.708195 0.179452 2.542429 17.679420 -0.239906 4.761961 -2.916408 -1.287289 3.278453 6.437243 0.619222 -7.837969 -13.738141 -6.984016 -42.327381 -76.099416 63.593603 -1.051722 1.821837 -29.729067 -6.041039 3.187735 0.065824 21.273483 -6.129937 0.571763 59.855759 -77.725713 -80.881787 0.717611 8.126263 13.986684 -4.505201 -74.656320 0.847578 -115.132087 82.337230 -114.150949 -2.544479 -14.357626 0.456230 -0.279953 0.755152 -0.119689 -11.577677 -78.017713 28.886621 111.177903 79.340352 107.056688 -16.531934 -20.897703 0.652816 -0.301340 -1.010366 -0.144054
-39.249808 50.724381 4.113233 163.416678 -5.775652 -0.655795 3.262723 5.958914 0.942444 0.117847 0.237858 0.000836 0.209384 0.421682 0.003828 2.850135 5.715188 0.183145 2.547699 17.691116 -0.234312 4.761059 -2.896915 -1.278472 3.281773 6.445685 0.623848 -7.838695 -13.734223 -6.982301 -42.325713 -76.103483 63.588896 -1.048460 1.818177 -29.746842 -6.038506 3.201438 0.065175 21.255150 -6.128687 0.565321 59.835727 -77.723589 -80.838924 0.710265 8.136081 13.980035 -4.517825 -74.652044 0.866351 -115.119829 82.336770 -114.137969 -2.546043 -14.354553 0.455587 -0.280888 0.755600 -0.119555 -11.609344 -78.012670 28.922051 111.183551 79.337731 107.062959 -16.528544 -20.894301 0.655521 -0.293036 -1.011624 -0.147081
-39.250564 50.723843 4.112333 163.412947 -5.785484 -0.660936 3.266338 5.965660 0.947363 0.114062 0.231437 -0.002049 0.209229 0.421253 0.003674 2.852845 5.718316 0.184833 2.547033 17.695632 -0.232107 4.764060 -2.879349 -1.271651 3.281951 6.443907 0.623434 -7.839602 -13.724410 -6.977262 -42.325107 -76.109624 63.584124 -1.053021 1.824426 -29.780630 -6.037778 3.209506 0.062534 21.246203 -6.128367 0.553990 59.782193 -77.727064 -80.774666 0.703187 8.138868 13.981143 -4.529935 -74.641377 0.884858 -115.104068 82.335434 -114.122674 -2.551076 -14.355391 0.454860 -0.280913 0.759237 -0.120828 -11.621393 -78.002412 28.937707 111.185019 79.335062 107.066212 -16.531026 -20.890940 0.661017 -0.327755 -1.013227 -0.156106
-39.253379 50.723257 4.112001 163.399976 -5.790243 -0.654905 3.274191 5.963284 0.937968 0.113150 0.229385 -0.001062 0.211967 0.425956 0.005265 2.853193 5.717006 0.183668 2.537902 17.701122 -0.232241 4.775933 -2.873535 -1.269485 3.272160 6.444423 0.616063 -7.823720 -13.729653 -6.965531 -42.287219 -76.102028 63.520693 -1.051389 1.828823 -29.771216 -6.040553 3.217094 0.055351 21.247604 -6.129695 0.548598 59.741522 -77.728921 -80.723977 0.698458 8.144516 13.976024 -4.499603 -74.637155 0.868647 -115.067604 82.335933 -114.088103 -2.558814 -14.358247 0.452741 -0.274926 0.767072 -0.117236 -11.582625 -77.999721 28.902948 111.167987 79.319427 107.054574 -16.538690 -20.881264 0.667159 -0.266217 -1.020499 -0.155714
-39.256893 50.722583 4.113185 163.390876 -5.786728 -0.647988 3.272784 5.943337 0.925193 0.119822 0.241273 0.002770 0.211662 0.425637 0.005530 2.848073 5.709203 0.176512 2.539371 17.712572 -0.224706 4.781922 -2.850248 -1.260031 3.273744 6.456332 0.619844 -7.812801 -13.735727 -6.962604 -42.248182 -76.083963 63.451628 -1.041492 1.825504 -29.754827 -6.035929 3.236188 0.051354 21.240299 -6.128042 0.533088 59.710134 -77.747999 -80.683387 0.700981 8.142107 13.980531 -4.470524 -74.641889 0.849408 -114.992495 82.328552 -114.018549 -2.549855 -14.356648 0.456069 -0.276481 0.772795 -0.116868 -11.535444 -78.006146 28.855745 111.130303 79.306456 107.023939 -16.541032 -20.867713 0.670241 -0.323850 -1.026533 -0.165638
-39.258176 50.722102 4.114243 163.389075 -5.789366 -0.654065 3.268591 5.936455 0.926639 0.123742 0.245688 0.004819 0.208138 0.420008 0.003234 2.840509 5.705437 0.173928 2.547852 17.724306 -0.217982 4.786655 -2.825652 -1.250400 3.284895 6.469922 0.624406 -7.804985 -13.739750 -6.965626 -42.233801 -76.072340 63.424993 -1.046767 1.829851 -29.764624 -6.025857 3.252488 0.046792 21.243675 -6.127962 0.533057 59.659873 -77.733381 -80.631949 0.690554 8.134560 13.981281 -4.485381 -74.638651 0.870154 -114.955470 82.325934 -113.984291 -2.547001 -14.356077 0.461953 -0.277462 0.775471 -0.120560 -11.546994 -78.005075 28.864585 111.087073 79.290102 106.984766 -16.531827 -20.851835 0.667020 -0.320660 -1.022492 -0.160279
-39.259188 50.721703 4.115453 163.388632 -5.793132 -0.661345 3.260568 5.928378 0.927874 0.125976 0.247526 0.006041 0.199762 0.409295 -0.001626 2.844731 5.710819 0.176412 2.557460 17.737177 -0.211191 4.794412 -2.783085 -1.229508 3.294657 6.484126 0.629794 -7.796589 -13.743019 -6.970358 -42.221848 -76.063290 63.402878 -1.047251 1.832353 -29.775246 -6.014997 3.272825 0.035501 21.244608 -6.136642 0.543427 59.654368 -77.723655 -80.622321 0.688913 8.132288 13.980919 -4.521791 -74.635447 0.909457 -114.934081 82.325618 -113.968668 -2.546579 -14.351548 0.467809 -0.280713 0.773340 -0.125296 -11.584430 -78.002428 28.900672 111.042563 79.272310 106.941733 -16.539852 -20.827999 0.661136 -0.312393 -1.034025 -0.154894
-39.260907 50.721352 4.117022 163.391374 -5.794911 -0.664344 3.254341 5.925482 0.928154 0.116352 0.235543 0.000452 0.206402 0.416727 0.002199 2.845433 5.704443 0.176799 2.561061 17.752807 -0.208484 4.800715 -2.772687 -1.225145 3.298962 6.498264 0.631309 -7.790268 -13.745026 -6.973132 -42.218971 -76.056851 63.394641 -1.048747 1.836802 -29.792934 -6.006300 3.290937 0.027662 21.241595 -6.133158 0.547077 59.674912 -77.719376 -80.637931 0.693203 8.131475 13.977741 -4.537288 -74.633460 0.927265 -114.907187 82.322184 -113.944590 -2.554621 -14.351097 0.469850 -0.275582 0.774794 -0.124227 -11.621159 -77.997725 28.924981 110.976453 79.251204 106.871320 -16.529907 -20.805187 0.657012 -0.335380 -1.047858 -0.160297
-39.263047 50.720879 4.120904 163.401113 -5.783603 -0.668025 3.241352 5.909662 0.927994 0.117970 0.237779 0.001343 0.201780 0.411470 -0.000140 2.836652 5.692591 0.166805 2.575553 17.772866 -0.196226 4.807161 -2.762752 -1.221550 3.305612 6.517862 0.640406 -7.779578 -13.746944 -6.971838 -42.175735 -76.051707 63.350681 -1.048513 1.835664 -29.792744 -5.987591 3.314671 0.028678 21.241050 -6.131420 0.547147 59.679312 -77.719053 -80.641777 0.720283 8.142431 13.978582 -4.558080 -74.644486 0.942638 -114.868107 82.323099 -113.909738 -2.554486 -14.348130 0.474352 -0.279001 0.776978 -0.125321 -11.662930 -78.007942 28.953247 110.873662 79.231670 106.769969 -16.552384 -20.775577 0.650333 -0.312944 -1.051536 -0.152425
